<svg xmlns="http://www.w3.org/2000/svg" width="18" height="12" viewBox="0 0 18 12" fill="none">
  <path d="M0 9.7998C2.44418e-08 9.24064 0.201683 8.68991 0.582031 8.27246L7.50781 0.672852C7.8907 0.252861 8.42887 0 9.00781 0C9.5866 0.000121117 10.124 0.252962 10.5068 0.672852L17.4375 8.27832L17.4424 8.2832C17.8112 8.70222 18.0044 9.24876 18 9.80176C17.9956 10.3547 17.7941 10.8978 17.418 11.3105C17.0395 11.7258 16.5097 11.9779 15.9375 11.9834C15.3651 11.9889 14.8303 11.7469 14.4443 11.3379L14.4395 11.332L9.32422 5.71973C9.15423 5.53322 8.86041 5.53322 8.69043 5.71973L3.58008 11.3271C3.1972 11.747 2.65988 12 2.08105 12C1.50226 11.9999 0.964873 11.747 0.582031 11.3271C0.201694 10.9097 1.06247e-05 10.359 0 9.7998Z" fill="#7B7B7B" fill-opacity="0.5"/>
</svg>