<svg xmlns="http://www.w3.org/2000/svg" width="32" height="32" viewBox="0 0 32 32" fill="none">
  <path fill-rule="evenodd" clip-rule="evenodd" d="M10.4236 19.9593C10.3003 20.3752 10.2921 20.8726 10.4766 21.4666C10.5392 21.4607 10.6026 21.4577 10.6667 21.4577C11.7713 21.4577 12.6667 22.3598 12.6667 23.4725C12.6667 24.5852 11.7713 25.4873 10.6667 25.4873C9.56207 25.4873 8.66667 24.5852 8.66667 23.4725C8.66667 22.9114 8.89433 22.4039 9.26167 22.0386C8.95473 21.1615 8.92193 20.334 9.1452 19.5804C9.15013 19.5638 9.1552 19.5472 9.1604 19.5306C6.36141 20.532 4 22.1274 4 24.3119V28.6674H28V24.3119C28 22.147 25.6808 20.5607 22.9149 19.5578C23.0509 19.9446 23.1282 20.3565 23.1428 20.791H23.2941C23.4477 20.791 23.5965 20.844 23.7155 20.941L25.088 22.0604C25.2433 22.187 25.3333 22.3767 25.3333 22.577V25.4873C25.3333 25.8555 25.0349 26.154 24.6667 26.154H23.2941V24.8206H24V22.8936L23.0567 22.1244H23.003C22.9969 22.1506 22.9905 22.1769 22.984 22.2033L22.6657 22.1244H21.6099L20.6667 22.8936V24.8206H21.3725V26.154H20C19.6318 26.154 19.3333 25.8555 19.3333 25.4873V22.577C19.3333 22.3767 19.4234 22.187 19.5787 22.0604L20.9512 20.941C21.0702 20.844 21.219 20.791 21.3725 20.791H21.8084C21.7919 20.4494 21.7202 20.1439 21.6076 19.8704C21.4727 19.5429 21.2715 19.2428 21.0095 18.9715C20.9222 18.949 20.8349 18.927 20.7476 18.9056C20.4124 18.8232 20.0686 18.9917 19.9164 19.3036H17.207C16.6145 19.3037 16.3129 19.3037 16.0166 19.3036C15.7092 19.3036 15.4075 19.3036 14.7929 19.3038L12.0836 19.3036C11.9314 18.9917 11.5876 18.8232 11.2524 18.9056C11.1777 18.9239 11.1029 18.9426 11.0283 18.9618C10.7329 19.266 10.5301 19.6001 10.4236 19.9593ZM11.3333 23.4725C11.3333 23.8582 11.0256 24.154 10.6667 24.154C10.3077 24.154 10 23.8582 10 23.4725C10 23.0868 10.3077 22.791 10.6667 22.791C11.0256 22.791 11.3333 23.0868 11.3333 23.4725Z" fill="#009599"/>
  <path d="M8 13.4583C8 16.5431 13.5688 17.334 13.5688 17.334C13.5688 17.334 9.75453 11.4018 11.6617 10.3735C13.5688 9.34525 18.7562 7.36785 19.1377 8.07972C22.6467 13.1419 18.1459 17.334 18.1459 17.334C18.1459 17.334 23.3333 16.8594 23.3333 13.4583C23.3333 10.0571 20.8922 5.94415 20.8922 5.94415C20.8922 5.94415 19.1377 3.33398 15.7048 3.33398C12.272 3.33398 11.0514 5.94415 11.0514 5.94415C11.0514 5.94415 8 10.3735 8 13.4583Z" fill="#009599"/>
</svg>