<svg xmlns="http://www.w3.org/2000/svg" width="39" height="41" viewBox="0 0 39 41" fill="none">
  <g clip-path="url(#clip0_69_1903)">
    <path fill-rule="evenodd" clip-rule="evenodd" d="M9.02391 23.6463C7.73401 23.2787 6.57507 22.5533 5.68172 21.5543C7.90762 20.7168 8.93033 18.0942 9.07404 14.1637C9.18099 11.2442 8.57606 8.8252 9.57203 5.94906C11.5506 0.243493 18.8499 -1.70507 22.9207 1.63151C26.1092 1.29786 29.3244 2.93612 30.0162 7.84424C30.5342 11.5145 29.4347 15.3115 30.5944 18.6915C30.8017 19.3853 31.1504 20.0288 31.6185 20.5817C32.0867 21.1346 32.6642 21.585 33.3149 21.9046C32.446 22.7354 31.186 23.2826 29.6786 23.653C28.5089 23.9366 26.3999 24.1535 23.9434 24.287V26.0053L26.3331 29.1917L19.495 34.6237L12.6636 29.2418L14.4884 26.1821V24.3337C12.1087 24.2202 10.0901 24 9.0072 23.6463H9.02391ZM29.6218 31.9344C28.5772 29.8835 27.2422 27.9934 25.658 26.3223C28.6024 27.46 32.0884 28.5811 34.3176 29.9925C35.7347 30.8767 36.4666 31.5474 37.0415 32.6217C38.4519 35.2643 38.2447 38.2005 39 41.0133H0C0.755335 38.2005 0.548119 35.2643 1.95852 32.6217C2.53338 31.534 3.26532 30.8634 4.67906 29.9792C6.9083 28.5811 10.3942 27.46 13.3387 26.3089C11.7536 27.9835 10.4196 29.8783 9.37818 31.9344L12.443 31.8577L19.3279 37.3464L26.5537 31.8577L29.6218 31.9344Z" fill="#E681AD"/>
  </g>
  <defs>
    <clipPath id="clip0_69_1903">
      <rect width="39" height="41" fill="white"/>
    </clipPath>
  </defs>
</svg>