<svg xmlns="http://www.w3.org/2000/svg" width="28" height="28" viewBox="0 0 28 28" fill="none">
  <g clip-path="url(#clip0_69_1129)">
    <path d="M18.1877 17.1111C18.2543 16.8622 18.2201 16.6024 18.0913 16.3793L16.0837 12.9016C15.9119 12.6042 15.5915 12.4192 15.2475 12.4192C15.0792 12.4192 14.9128 12.464 14.7664 12.5486L13.7198 13.1529C13.2945 12.8409 12.8345 12.5735 12.3469 12.3575V11.1518C12.3469 10.62 11.9142 10.1875 11.3825 10.1875H7.36678C6.83513 10.1875 6.40256 10.62 6.40256 11.1518V12.3574C5.91487 12.5734 5.45498 12.8409 5.02957 13.1529L3.98298 12.5487C3.83655 12.4641 3.67012 12.4193 3.50183 12.4193C3.15787 12.4193 2.83754 12.6042 2.66571 12.9017L0.657989 16.3792C0.529196 16.6024 0.494938 16.8622 0.561529 17.1111C0.628273 17.3599 0.787783 17.5679 1.0108 17.6965L2.05447 18.299C2.02637 18.5601 2.01143 18.825 2.01143 19.0933C2.01143 19.3617 2.02629 19.6267 2.05447 19.8877L1.0108 20.4903C0.787706 20.619 0.628273 20.8269 0.561529 21.0758C0.494938 21.3245 0.529196 21.5845 0.657989 21.8075L2.66564 25.2852C2.83746 25.5827 3.15787 25.7675 3.50175 25.7675C3.67004 25.7675 3.83648 25.7229 3.9829 25.6382L5.02957 25.034C5.4549 25.3459 5.91487 25.6133 6.40249 25.8294V27.035C6.40249 27.2926 6.5028 27.5347 6.68502 27.7168C6.86716 27.8989 7.10935 27.9994 7.3667 27.9994H11.3825C11.9141 27.9994 12.3468 27.5667 12.3468 27.035V25.8293C12.8344 25.6133 13.2943 25.3459 13.7197 25.0339L14.7663 25.6381C14.9128 25.7228 15.0792 25.7675 15.2474 25.7675C15.5915 25.7675 15.9118 25.5827 16.0836 25.2851L18.0913 21.8074C18.22 21.5844 18.2542 21.3245 18.1876 21.0757C18.121 20.8268 17.9615 20.6188 17.7385 20.4902L16.6949 19.8876C16.723 19.6265 16.7378 19.3615 16.7378 19.0932C16.7378 18.8248 16.723 18.5598 16.6949 18.2989L17.7385 17.6963C17.9616 17.5679 18.1211 17.36 18.1877 17.1111ZM9.37466 23.2811C7.06185 23.2811 5.18707 21.4063 5.18707 19.0935C5.18707 16.7808 7.06193 14.9059 9.37466 14.9059C11.6874 14.9059 13.5623 16.7808 13.5623 19.0935C13.5623 21.4062 11.6875 23.2811 9.37466 23.2811Z" fill="#009599"/>
    <path d="M12.896 7.2051C12.8519 7.36985 12.8746 7.54183 12.9599 7.68933L14.2883 9.99051C14.4021 10.1875 14.614 10.3097 14.8416 10.3097C14.953 10.3097 15.063 10.2801 15.1601 10.2242L15.8531 9.82408C16.1344 10.0304 16.4387 10.2068 16.7611 10.3496V11.1485C16.7611 11.3189 16.8274 11.4791 16.9481 11.5997C17.0686 11.7203 17.2288 11.7865 17.3992 11.7865H20.0564C20.4082 11.7865 20.6946 11.5003 20.6946 11.1485V10.3496C21.017 10.2068 21.3213 10.0303 21.6026 9.824L22.2957 10.2242C22.3926 10.2802 22.5026 10.3097 22.614 10.3097C22.8417 10.3097 23.0537 10.1874 23.1674 9.99051L24.4958 7.68933C24.5811 7.54183 24.6037 7.36985 24.5597 7.2051C24.5155 7.04044 24.4101 6.90287 24.2625 6.81765L23.5716 6.41872C23.5901 6.24604 23.6003 6.07083 23.6003 5.89331C23.6003 5.71578 23.5901 5.54065 23.5716 5.3679L24.2625 4.96904C24.4101 4.88382 24.5155 4.74618 24.5597 4.58151C24.6037 4.41684 24.581 4.24494 24.4958 4.09729L23.1674 1.7961C23.0537 1.59918 22.8418 1.47685 22.614 1.47685C22.5026 1.47685 22.3926 1.50649 22.2957 1.56253L21.6026 1.96269C21.3213 1.75638 21.0171 1.57993 20.6946 1.43713V0.638115C20.6946 0.286301 20.4082 0 20.0564 0H17.3992C17.0474 0 16.7611 0.286301 16.7611 0.638115V1.43705C16.4387 1.57993 16.1344 1.75638 15.8532 1.96261L15.1601 1.56245C15.063 1.50633 14.9531 1.47677 14.8416 1.47677C14.6141 1.47677 14.4021 1.59918 14.2883 1.79602L12.9599 4.09721C12.8746 4.24486 12.8519 4.41677 12.896 4.58143C12.9402 4.74618 13.0457 4.88375 13.1932 4.96897L13.8841 5.36782C13.8656 5.54049 13.8554 5.71571 13.8554 5.89323C13.8554 6.07083 13.8656 6.24597 13.8841 6.41864L13.1932 6.81757C13.0457 6.90287 12.9402 7.04044 12.896 7.2051ZM18.7278 3.12229C20.2583 3.12229 21.4989 4.36295 21.4989 5.89331C21.4989 7.42366 20.2583 8.66432 18.7278 8.66432C17.1973 8.66432 15.9567 7.42366 15.9567 5.89331C15.9567 4.36295 17.1973 3.12229 18.7278 3.12229Z" fill="#009599"/>
    <path d="M27.2525 16.1268L26.7768 15.8522C26.7896 15.7333 26.7966 15.6127 26.7966 15.4905C26.7966 15.3682 26.7896 15.2477 26.7768 15.1287L27.2525 14.8541C27.354 14.7955 27.4267 14.7008 27.457 14.5874C27.4874 14.474 27.4717 14.3557 27.4131 14.254L26.4986 12.67C26.4203 12.5344 26.2745 12.4502 26.1178 12.4502C26.0411 12.4502 25.9654 12.4706 25.8986 12.5092L25.4215 12.7847C25.2278 12.6426 25.0184 12.5211 24.7965 12.4228V11.8729C24.7965 11.6307 24.5994 11.4336 24.3573 11.4336H22.5281C22.2859 11.4336 22.0889 11.6307 22.0889 11.8729V12.4228C21.8669 12.5211 21.6575 12.6426 21.4638 12.7847L20.9867 12.5092C20.92 12.4706 20.8442 12.4502 20.7675 12.4502C20.6109 12.4502 20.4649 12.5344 20.3868 12.67L19.4723 14.254C19.4135 14.3557 19.3978 14.474 19.4283 14.5874C19.4587 14.7008 19.5313 14.7955 19.6329 14.8541L20.1086 15.1287C20.0958 15.2476 20.0888 15.3681 20.0888 15.4904C20.0888 15.6126 20.0958 15.7332 20.1086 15.8521L19.6329 16.1267C19.5313 16.1852 19.4587 16.2798 19.4283 16.3933C19.3978 16.5067 19.4136 16.6251 19.4723 16.7267L20.3868 18.3107C20.465 18.4463 20.6109 18.5305 20.7675 18.5305C20.8442 18.5305 20.92 18.51 20.9867 18.4715L21.4638 18.196C21.6575 18.3381 21.8669 18.4595 22.0889 18.5579V19.1078C22.0889 19.2251 22.1345 19.3355 22.2175 19.4184C22.3005 19.5014 22.4109 19.5471 22.5281 19.5471H24.3573C24.5994 19.5471 24.7965 19.35 24.7965 19.1078V18.5579C25.0184 18.4596 25.2279 18.3381 25.4215 18.196L25.8986 18.4715C25.9653 18.51 26.0411 18.5305 26.1178 18.5305C26.2745 18.5305 26.4203 18.4463 26.4986 18.3107L27.4131 16.7267C27.4718 16.6251 27.4874 16.5067 27.457 16.3933C27.4267 16.28 27.354 16.1853 27.2525 16.1268ZM23.4427 17.398C22.3891 17.398 21.5352 16.5438 21.5352 15.4905C21.5352 14.4369 22.3891 13.5829 23.4427 13.5829C24.4962 13.5829 25.3501 14.437 25.3501 15.4905C25.3501 16.5439 24.4961 17.398 23.4427 17.398Z" fill="#009599"/>
  </g>
  <defs>
    <clipPath id="clip0_69_1129">
      <rect width="28" height="28" fill="white"/>
    </clipPath>
  </defs>
</svg>