<svg width="15" height="22" viewBox="0 0 15 22" fill="none" xmlns="http://www.w3.org/2000/svg">
<path d="M2.85547 0C3.53889 2.98732e-08 4.21244 0.24607 4.72266 0.710938L14.0107 9.17676C14.524 9.64469 14.8329 10.3013 14.833 11.0088C14.833 11.7163 14.524 12.3729 14.0107 12.8408L4.71582 21.3125L4.70898 21.3184C4.19687 21.7692 3.52938 22.0053 2.85352 22C2.17767 21.9946 1.51427 21.7478 1.00977 21.2881C0.502154 20.8255 0.193193 20.178 0.186523 19.4785C0.179959 18.7791 0.475939 18.1259 0.975586 17.6543L0.982422 17.6484L7.84277 11.3965C8.07064 11.1888 8.07045 10.8299 7.84277 10.6221L0.989258 4.37598C0.476027 3.90805 0.167058 3.25143 0.166992 2.54395C0.166992 1.83635 0.475939 1.17891 0.989258 0.710938C1.49936 0.246213 2.17222 9.57451e-05 2.85547 0Z" fill="#7B7B7B" fill-opacity="0.5"/>
</svg>
