<svg xmlns="http://www.w3.org/2000/svg" width="24" height="24" viewBox="0 0 24 24" fill="none">
  <g clip-path="url(#clip0_69_1114)">
    <path d="M23.4458 2.61466C23.4458 2.61466 22.427 2.26619 21.5919 2.0537C19.2978 1.46955 14.4761 1.1582 12 1.1582C9.5239 1.1582 4.70224 1.46955 2.40818 2.0537C1.57306 2.26623 0.554227 2.61466 0.554227 2.61466C0.200696 2.72153 -0.0290855 3.06109 0.002977 3.42906L0.401743 8.01508C0.437227 8.41802 0.774727 8.72762 1.17898 8.72762H5.15337C5.55209 8.72762 5.88663 8.42687 5.92929 8.03022L6.12991 6.15648C6.16962 5.78477 6.46741 5.49377 6.83998 5.46203C6.83998 5.46203 10.0502 5.17225 12 5.17225C13.9494 5.17225 17.16 5.46203 17.16 5.46203C17.5326 5.49372 17.8304 5.78477 17.8701 6.15648L18.0712 8.03022C18.1134 8.42687 18.448 8.72762 18.8467 8.72762H22.8206C23.2253 8.72762 23.5628 8.41802 23.5983 8.01508L23.997 3.42906C24.0291 3.06109 23.7994 2.72153 23.4458 2.61466Z" fill="#009599"/>
    <path d="M16.758 6.40234H14.1628V8.56502H9.83736V6.40234H7.24213C7.24213 6.40234 6.80956 12.0253 1.61914 16.1344C1.61914 17.6483 1.61914 22.2258 1.61914 22.2258C1.61914 22.5642 1.89369 22.8388 2.23203 22.8388H21.768C22.1064 22.8388 22.381 22.5642 22.381 22.2258C22.381 22.2258 22.381 17.6483 22.381 16.1344C17.1905 12.0253 16.758 6.40234 16.758 6.40234ZM15.8798 18.3457V20.0991H14.1268V18.3457H15.8798ZM15.8798 15.573V17.3264H14.1268V15.573H15.8798ZM14.1268 14.5534V12.8005H15.8798V14.5534H14.1268ZM12.8765 18.3457V20.0991H11.1236V18.3457H12.8765ZM12.8765 15.573V17.3264H11.1236V15.573H12.8765ZM12.8765 12.8005V14.5534H11.1236V12.8005H12.8765ZM9.87327 18.3457V20.0991H8.12028V18.3457H9.87327ZM9.87327 15.573V17.3264H8.12028V15.573H9.87327ZM9.87327 12.8005V14.5534H8.12028V12.8005H9.87327Z" fill="#009599"/>
  </g>
  <defs>
    <clipPath id="clip0_69_1114">
      <rect width="24" height="24" fill="white"/>
    </clipPath>
  </defs>
</svg>