<svg xmlns="http://www.w3.org/2000/svg" width="78" height="78" viewBox="0 0 78 78" fill="none">
  <rect width="78" height="78" rx="39" fill="#E681AD"/>
  <path d="M35.4451 20.5334L20.1193 54.7371C18.7954 57.6916 21.4474 60.8789 24.5927 60.1158L31.8935 58.3445C32.9289 58.0933 33.8263 57.419 34.3556 56.4944L38.2861 49.6296C38.6019 49.0781 39.3973 49.0769 39.7139 49.6296L43.6444 56.4943C44.1737 57.4189 45.0712 58.0932 46.1066 58.3444L53.4074 60.1158C56.5457 60.8773 59.2063 57.6953 57.8809 54.7371L42.555 20.5334C41.1783 17.4609 36.82 17.465 35.4451 20.5334ZM39.7507 21.79L55.0766 55.9937C55.3569 56.6186 54.7978 57.2909 54.1319 57.1294L46.8311 55.3581C46.6124 55.305 46.423 55.1626 46.3112 54.9675L42.3807 48.1028C40.8845 45.4895 37.117 45.487 35.6195 48.1028L31.6889 54.9675C31.5771 55.1627 31.3876 55.3051 31.169 55.3581L23.8682 57.1294C23.2106 57.2889 22.6398 56.6267 22.9237 55.9937L38.2495 21.7899C38.5403 21.1409 39.4591 21.1392 39.7507 21.79Z" fill="white"/>
</svg>