<svg width="31" height="31" viewBox="0 0 31 31" fill="none" xmlns="http://www.w3.org/2000/svg">
<path d="M14.3584 1.87488C14.7252 1.09546 14.9086 0.705759 15.1576 0.581248C15.3742 0.472917 15.6258 0.472917 15.8424 0.581248C16.0914 0.705759 16.2748 1.09546 16.6416 1.87488L20.1214 9.26934C20.2297 9.49944 20.2839 9.61449 20.363 9.70382C20.433 9.78291 20.5171 9.84699 20.6104 9.89251C20.7158 9.94393 20.8368 9.96248 21.0789 9.9996L28.8628 11.193C29.6824 11.3186 30.0923 11.3815 30.2819 11.5914C30.447 11.7741 30.5246 12.0252 30.4931 12.2747C30.457 12.5615 30.1603 12.8646 29.5669 13.4709L23.9366 19.223C23.7611 19.4023 23.6733 19.4919 23.6167 19.5986C23.5665 19.693 23.5344 19.7968 23.522 19.9041C23.508 20.0253 23.5287 20.152 23.5701 20.4053L24.8986 28.5299C25.0387 29.3868 25.1088 29.8152 24.9771 30.0695C24.8625 30.2907 24.6589 30.4459 24.4229 30.4918C24.1517 30.5445 23.7849 30.3422 23.0512 29.9375L16.0926 26.099C15.8758 25.9795 15.7673 25.9197 15.6531 25.8962C15.552 25.8754 15.448 25.8754 15.3469 25.8962C15.2327 25.9197 15.1243 25.9795 14.9074 26.099L7.94877 29.9375C7.21513 30.3422 6.84831 30.5445 6.57708 30.4918C6.34109 30.4459 6.13746 30.2907 6.0229 30.0695C5.89124 29.8152 5.9613 29.3868 6.10142 28.5299L7.42992 20.4053C7.47134 20.152 7.49204 20.0253 7.47803 19.9041C7.46563 19.7968 7.43346 19.693 7.38332 19.5986C7.3267 19.4919 7.23894 19.4023 7.06342 19.223L1.43309 13.4709C0.83967 12.8646 0.542961 12.5615 0.506855 12.2747C0.475441 12.0252 0.553048 11.7741 0.718069 11.5914C0.907737 11.3815 1.31757 11.3186 2.13725 11.193L9.9211 9.9996C10.1632 9.96248 10.2842 9.94393 10.3896 9.89251C10.4829 9.84699 10.567 9.78291 10.637 9.70382C10.7161 9.61449 10.7703 9.49944 10.8786 9.26934L14.3584 1.87488Z" fill="#CDD2DE"/>
</svg>
