<svg width="590" height="359" viewBox="0 0 590 359" fill="none" xmlns="http://www.w3.org/2000/svg">
<mask id="path-1-inside-1_69_1342" fill="white">
<path d="M259.063 0.378784C237.704 1.90442 215.909 5.3916 197.674 10.1865C152.849 22.0283 120.012 37.9385 84.7041 64.9641C56.3708 86.6137 32.9776 111.605 13.5076 140.956C-7.1249 172.122 -20.9283 203.361 -29.7189 239.032C-49.189 317.93 -40.9796 394.139 -5.30866 465.481C17.4306 510.887 50.0503 550.263 89.4263 579.904C100.832 588.476 120.084 600.391 136.285 609.036C156.554 619.788 182.636 628.87 208.644 634.173C234.071 639.404 252.815 641.365 278.315 641.438C315.366 641.511 339.413 637.951 371.306 627.634C395.135 619.934 407.776 614.412 427.682 602.934C454.708 587.532 472.798 573.511 494.084 551.716C516.896 528.323 532.661 507.545 549.516 478.703C568.84 445.502 582.716 403.438 588.601 359.63C590.417 345.972 590.49 304.417 588.674 286.618C582.28 224.139 558.669 167.255 518.349 116.981C503.674 98.6008 482.46 77.3872 465.751 64.3829C439.452 43.8231 403.272 24.8616 370.943 14.618C359.101 10.8403 338.033 5.75482 327.353 4.01123C307.157 0.814636 276.571 -0.78363 259.063 0.378784ZM290.229 27.9856C314.64 29.3659 333.02 32.5625 353.507 39.1736L361.135 41.571L361.353 153.597L361.499 265.549H347.259C334.182 265.549 333.093 265.477 333.238 264.242C333.311 263.588 333.311 248.186 333.238 230.096L333.165 197.259H319.362H305.559V231.404V265.549H286.67H267.781V231.404V197.259H253.251H238.721L238.576 223.558C238.576 238.088 238.43 251.383 238.285 253.199C238.212 255.015 238.14 258.502 238.067 260.972L237.995 265.549H216.2H194.405V231.404V197.259H179.512H164.618V231.404V265.549H146.819H129.02V231.404V197.259L90.734 197.695L52.375 198.131L49.9776 201.836C46.1998 207.72 40.5332 219.272 36.3922 229.588C27.8922 250.729 22.952 271.289 20.6999 294.609C19.5375 306.96 19.7554 337.327 21.1358 349.387C27.1657 403.874 47.7255 451.677 82.016 491.053C119.14 533.626 162.076 560.506 213.657 573.511C247.366 581.938 287.178 583.464 322.994 577.724L332.802 576.126V551.207V526.361H319.217H305.559V537.549V548.737L303.234 549.1C292.99 550.553 258.409 550.117 245.259 548.301C202.614 542.417 163.093 525.344 130.11 498.536C124.879 494.323 109.405 479.139 109.405 478.267C109.405 477.977 153.576 477.686 207.482 477.686H305.559V486.694V495.63L308.9 496.139C310.789 496.357 316.965 496.575 322.704 496.575H333.165V487.13V477.686H388.088H442.939L441.558 479.647C439.815 482.118 428.409 493.088 421.507 499.118C407.631 511.032 395.353 519.023 375.665 528.976L361.499 536.169V552.297C361.499 561.233 361.789 568.498 362.152 568.498C364.405 568.498 385.618 558.472 396.734 552.152C427.028 535.006 452.456 513.357 474.469 486.041C481.516 477.323 494.956 457.271 500.84 446.665C518.567 414.989 528.883 379.464 531.498 341.105C531.862 335.293 532.225 329.481 532.225 328.173V325.848H446.862H361.499V385.566V445.357L347.259 445.139L332.947 444.921L333.238 385.566L333.529 326.212L319.58 325.994L305.559 325.848V385.421V444.994H296.695C291.755 444.994 283.255 445.139 277.806 445.357L267.781 445.72V416.66V387.601H253.106H238.358V416.442V445.357H216.2H194.042L194.26 437.002C194.405 432.425 194.26 419.421 194.042 408.088L193.533 387.601H179.439H165.345L165.2 416.442L164.982 445.357L124.661 445.575L84.3408 445.72L80.4904 439.836C74.8237 431.19 71.046 424.143 65.6699 411.938C52.593 382.297 46.0545 347.498 47.1443 312.917C47.4349 305.216 47.7981 298.605 48.0161 298.242C48.3067 297.806 138.029 297.515 290.302 297.515H532.225L531.862 295.481C531.644 294.391 530.99 289.742 530.409 285.165C526.922 260.319 520.238 236.417 510.793 215.349C505.781 204.233 502.293 198.131 500.622 197.695C499.823 197.477 474.687 197.259 444.682 197.259H390.195L390.05 124.609C389.905 84.6522 389.977 51.9599 390.195 51.9599C392.447 51.9599 418.165 66.4171 430.298 74.5539C439.234 80.5111 450.785 89.0837 456.669 94.0239C473.669 108.191 496.772 134.562 510.067 154.759C539.998 200.237 555.11 242.084 560.268 293.519C561.575 307.25 561.793 333.041 560.558 346.554C555.909 399.37 537.02 450.006 506.144 492.579C490.234 514.519 474.105 532.173 455.943 547.429C453.328 549.609 451.075 551.643 450.858 551.861C449.913 553.023 432.913 565.229 426.52 569.37C380.823 599.011 333.456 612.814 276.862 612.814C236.178 612.814 198.909 604.823 160.26 587.75C101.123 561.669 51.7938 514.229 21.499 454.438C3.91782 419.639 -4.94541 390.071 -9.88558 349.823C-11.1206 339.507 -11.1206 299.985 -9.88558 288.434C-2.98388 226.028 18.811 174.302 56.3708 131.003C69.593 115.819 75.8408 109.498 87.9733 99.2547C103.956 85.7419 114.127 78.4043 131.999 67.5068C140.789 62.2034 163.601 50.7249 173.772 46.5838C198.909 36.4129 230.076 29.7292 260.298 28.0582C275.772 27.1864 276.353 27.1864 290.229 27.9856ZM100.687 246.661V265.549H77.4391H54.1186L54.6272 262.789C55.5716 257.703 58.6229 247.75 61.9648 239.396C63.7084 234.819 65.5246 230.314 65.8878 229.37C66.469 227.772 66.5417 227.772 83.6143 227.772H100.687V246.661ZM488.127 233.729C491.759 242.302 497.353 261.118 497.353 264.823C497.353 265.259 477.52 265.549 443.593 265.549H389.832V246.661V227.772H437.708H485.584L488.127 233.729ZM501.712 358.105C501.712 358.686 500.913 363.554 499.896 368.93C495.246 394.284 484.567 419.93 468.075 445.502C465.751 449.207 463.499 452.259 463.135 452.259C462.772 452.259 462.481 438.528 462.481 419.93V387.601H426.157H389.832V372.344V357.088H445.772C493.866 357.088 501.712 357.233 501.712 358.105ZM432.55 432.425L432.332 445.357L412.208 445.502C401.165 445.647 391.576 445.502 390.922 445.284C389.977 444.921 389.832 442.959 389.905 432.207V419.566H411.336H432.695L432.55 432.425Z"/>
</mask>
<path d="M259.063 0.378784C237.704 1.90442 215.909 5.3916 197.674 10.1865C152.849 22.0283 120.012 37.9385 84.7041 64.9641C56.3708 86.6137 32.9776 111.605 13.5076 140.956C-7.1249 172.122 -20.9283 203.361 -29.7189 239.032C-49.189 317.93 -40.9796 394.139 -5.30866 465.481C17.4306 510.887 50.0503 550.263 89.4263 579.904C100.832 588.476 120.084 600.391 136.285 609.036C156.554 619.788 182.636 628.87 208.644 634.173C234.071 639.404 252.815 641.365 278.315 641.438C315.366 641.511 339.413 637.951 371.306 627.634C395.135 619.934 407.776 614.412 427.682 602.934C454.708 587.532 472.798 573.511 494.084 551.716C516.896 528.323 532.661 507.545 549.516 478.703C568.84 445.502 582.716 403.438 588.601 359.63C590.417 345.972 590.49 304.417 588.674 286.618C582.28 224.139 558.669 167.255 518.349 116.981C503.674 98.6008 482.46 77.3872 465.751 64.3829C439.452 43.8231 403.272 24.8616 370.943 14.618C359.101 10.8403 338.033 5.75482 327.353 4.01123C307.157 0.814636 276.571 -0.78363 259.063 0.378784ZM290.229 27.9856C314.64 29.3659 333.02 32.5625 353.507 39.1736L361.135 41.571L361.353 153.597L361.499 265.549H347.259C334.182 265.549 333.093 265.477 333.238 264.242C333.311 263.588 333.311 248.186 333.238 230.096L333.165 197.259H319.362H305.559V231.404V265.549H286.67H267.781V231.404V197.259H253.251H238.721L238.576 223.558C238.576 238.088 238.43 251.383 238.285 253.199C238.212 255.015 238.14 258.502 238.067 260.972L237.995 265.549H216.2H194.405V231.404V197.259H179.512H164.618V231.404V265.549H146.819H129.02V231.404V197.259L90.734 197.695L52.375 198.131L49.9776 201.836C46.1998 207.72 40.5332 219.272 36.3922 229.588C27.8922 250.729 22.952 271.289 20.6999 294.609C19.5375 306.96 19.7554 337.327 21.1358 349.387C27.1657 403.874 47.7255 451.677 82.016 491.053C119.14 533.626 162.076 560.506 213.657 573.511C247.366 581.938 287.178 583.464 322.994 577.724L332.802 576.126V551.207V526.361H319.217H305.559V537.549V548.737L303.234 549.1C292.99 550.553 258.409 550.117 245.259 548.301C202.614 542.417 163.093 525.344 130.11 498.536C124.879 494.323 109.405 479.139 109.405 478.267C109.405 477.977 153.576 477.686 207.482 477.686H305.559V486.694V495.63L308.9 496.139C310.789 496.357 316.965 496.575 322.704 496.575H333.165V487.13V477.686H388.088H442.939L441.558 479.647C439.815 482.118 428.409 493.088 421.507 499.118C407.631 511.032 395.353 519.023 375.665 528.976L361.499 536.169V552.297C361.499 561.233 361.789 568.498 362.152 568.498C364.405 568.498 385.618 558.472 396.734 552.152C427.028 535.006 452.456 513.357 474.469 486.041C481.516 477.323 494.956 457.271 500.84 446.665C518.567 414.989 528.883 379.464 531.498 341.105C531.862 335.293 532.225 329.481 532.225 328.173V325.848H446.862H361.499V385.566V445.357L347.259 445.139L332.947 444.921L333.238 385.566L333.529 326.212L319.58 325.994L305.559 325.848V385.421V444.994H296.695C291.755 444.994 283.255 445.139 277.806 445.357L267.781 445.72V416.66V387.601H253.106H238.358V416.442V445.357H216.2H194.042L194.26 437.002C194.405 432.425 194.26 419.421 194.042 408.088L193.533 387.601H179.439H165.345L165.2 416.442L164.982 445.357L124.661 445.575L84.3408 445.72L80.4904 439.836C74.8237 431.19 71.046 424.143 65.6699 411.938C52.593 382.297 46.0545 347.498 47.1443 312.917C47.4349 305.216 47.7981 298.605 48.0161 298.242C48.3067 297.806 138.029 297.515 290.302 297.515H532.225L531.862 295.481C531.644 294.391 530.99 289.742 530.409 285.165C526.922 260.319 520.238 236.417 510.793 215.349C505.781 204.233 502.293 198.131 500.622 197.695C499.823 197.477 474.687 197.259 444.682 197.259H390.195L390.05 124.609C389.905 84.6522 389.977 51.9599 390.195 51.9599C392.447 51.9599 418.165 66.4171 430.298 74.5539C439.234 80.5111 450.785 89.0837 456.669 94.0239C473.669 108.191 496.772 134.562 510.067 154.759C539.998 200.237 555.11 242.084 560.268 293.519C561.575 307.25 561.793 333.041 560.558 346.554C555.909 399.37 537.02 450.006 506.144 492.579C490.234 514.519 474.105 532.173 455.943 547.429C453.328 549.609 451.075 551.643 450.858 551.861C449.913 553.023 432.913 565.229 426.52 569.37C380.823 599.011 333.456 612.814 276.862 612.814C236.178 612.814 198.909 604.823 160.26 587.75C101.123 561.669 51.7938 514.229 21.499 454.438C3.91782 419.639 -4.94541 390.071 -9.88558 349.823C-11.1206 339.507 -11.1206 299.985 -9.88558 288.434C-2.98388 226.028 18.811 174.302 56.3708 131.003C69.593 115.819 75.8408 109.498 87.9733 99.2547C103.956 85.7419 114.127 78.4043 131.999 67.5068C140.789 62.2034 163.601 50.7249 173.772 46.5838C198.909 36.4129 230.076 29.7292 260.298 28.0582C275.772 27.1864 276.353 27.1864 290.229 27.9856ZM100.687 246.661V265.549H77.4391H54.1186L54.6272 262.789C55.5716 257.703 58.6229 247.75 61.9648 239.396C63.7084 234.819 65.5246 230.314 65.8878 229.37C66.469 227.772 66.5417 227.772 83.6143 227.772H100.687V246.661ZM488.127 233.729C491.759 242.302 497.353 261.118 497.353 264.823C497.353 265.259 477.52 265.549 443.593 265.549H389.832V246.661V227.772H437.708H485.584L488.127 233.729ZM501.712 358.105C501.712 358.686 500.913 363.554 499.896 368.93C495.246 394.284 484.567 419.93 468.075 445.502C465.751 449.207 463.499 452.259 463.135 452.259C462.772 452.259 462.481 438.528 462.481 419.93V387.601H426.157H389.832V372.344V357.088H445.772C493.866 357.088 501.712 357.233 501.712 358.105ZM432.55 432.425L432.332 445.357L412.208 445.502C401.165 445.647 391.576 445.502 390.922 445.284C389.977 444.921 389.832 442.959 389.905 432.207V419.566H411.336H432.695L432.55 432.425Z" stroke="white" stroke-opacity="0.1" stroke-width="4" mask="url(#path-1-inside-1_69_1342)"/>
</svg>
