<svg xmlns="http://www.w3.org/2000/svg" width="1366" height="542" viewBox="0 0 1366 542" fill="none">
<path d="M1461.97 46.8584C1399.09 41.1678 1336.89 26.8042 1278.02 56.4766C1241.37 74.9472 1215.86 106.606 1193.21 139.959C1164.64 182.031 1143.23 231.864 1101.72 261.463C1060.2 291.062 1010.75 306.734 962.623 313.149C904.303 320.922 853.58 278.044 818.487 236.14C775.359 184.641 747.821 117.54 753.185 49.4614C754.967 26.8431 774.463 3.41356 798.818 2.75926C840.894 1.62888 835.7 126.69 834.529 151.07C832.99 183.089 831.73 217.68 818.993 247.619C792.457 309.998 691.086 324.044 675.679 326.194C660.271 328.344 555.11 345.375 454.03 352.796C352.95 360.216 238.751 340.312 136.473 363.611C84.6243 375.422 29.21 401.15 -7.23702 440.681C-35.182 470.991 -37.8196 500.486 -44.7273 539.107" stroke="#E681AD" stroke-width="4" stroke-linecap="round" stroke-dasharray="12 12"/>
</svg>